<?xml version="1.0" encoding="UTF-8" standalone="no"?>
<!-- Created with Inkscape (http://www.inkscape.org/) -->

<svg
   width="512"
   height="512"
   viewBox="0 0 512 512"
   version="1.1"
   id="svg1"
   inkscape:version="1.4.3 (0d15f75042, 2025-12-25)"
   sodipodi:docname="favicon.svg"
   inkscape:export-filename="favicon.png"
   inkscape:export-xdpi="96"
   inkscape:export-ydpi="96"
   xmlns:inkscape="http://www.inkscape.org/namespaces/inkscape"
   xmlns:sodipodi="http://sodipodi.sourceforge.net/DTD/sodipodi-0.dtd"
   xmlns="http://www.w3.org/2000/svg"
   xmlns:svg="http://www.w3.org/2000/svg">
  <sodipodi:namedview
     id="namedview1"
     pagecolor="#505050"
     bordercolor="#ffffff"
     borderopacity="1"
     inkscape:showpageshadow="0"
     inkscape:pageopacity="0"
     inkscape:pagecheckerboard="1"
     inkscape:deskcolor="#505050"
     inkscape:document-units="px"
     inkscape:zoom="1.0661844"
     inkscape:cx="332.49407"
     inkscape:cy="281.37721"
     inkscape:window-width="1920"
     inkscape:window-height="1043"
     inkscape:window-x="0"
     inkscape:window-y="0"
     inkscape:window-maximized="1"
     inkscape:current-layer="g1" />
  <defs
     id="defs1" />
  <g
     inkscape:label="Layer 1"
     inkscape:groupmode="layer"
     id="layer1">
    <g
       id="g1"
       transform="translate(-16.333341,11.200009)">
      <path
         style="font-weight:bold;font-size:466.667px;line-height:1.2;font-family:'Helvetica Rounded';-inkscape-font-specification:'Helvetica Rounded Bold';letter-spacing:0.5px;fill:#1e3a8a;stroke-width:5;stroke-linecap:square;paint-order:markers stroke fill"
         d="m 68.100847,83.505861 c 0,-22.570161 11.009839,-44.039354 40.185913,-44.039354 29.17607,0 40.18591,21.469193 40.18591,44.039354 V 329.02525 h 1.10098 L 233.79891,65.890124 c 6.05542,-18.716728 19.81771,-26.423617 38.53444,-26.423617 18.71673,0 32.47902,7.706889 38.53443,26.423617 l 84.22526,263.135126 h 1.10098 V 83.505861 c 0,-22.570161 11.00984,-44.039354 40.18591,-44.039354 29.17607,0 40.18591,21.469193 40.18591,44.039354 V 405.54362 c 0,36.33248 -24.77213,44.58985 -48.99378,44.58985 h -25.32262 c -28.07509,0 -41.28689,-11.00984 -50.64525,-41.28689 L 273.98482,154.51931 h -1.10098 L 194.1635,408.84658 c -9.35836,30.27705 -22.57017,41.28689 -50.64526,41.28689 h -26.42361 c -24.221654,0 -48.993783,-8.25737 -48.993783,-44.58985 z"
         id="text1"
         aria-label="M" />
      <path
         style="font-weight:bold;font-size:466.667px;line-height:1.2;font-family:'Helvetica Rounded';-inkscape-font-specification:'Helvetica Rounded Bold';letter-spacing:0.5px;fill:#14b8a6;stroke-width:5;stroke-linecap:square;paint-order:markers stroke fill"
         d="m 68.100837,406.09412 c 0,22.57016 11.009841,44.03935 40.185913,44.03935 29.17607,0 40.18591,-21.46919 40.18591,-44.03935 v -245.5194 h 1.10099 l 84.22525,263.13513 c 6.05542,18.71673 19.81772,26.42363 38.53445,26.42363 18.71671,0 32.47903,-7.70689 38.53443,-26.42363 l 84.22526,-263.13513 h 1.101 v 245.51941 c 0,22.57015 11.00983,44.03935 40.1859,44.03935 29.17608,0 40.18591,-21.4692 40.18591,-44.03935 V 84.056356 c 0,-36.332476 -24.77214,-44.589849 -48.99379,-44.589849 h -25.32263 c -28.07508,0 -41.28689,11.009837 -50.64526,41.286888 L 273.98483,335.08065 h -1.10099 L 194.16349,80.753395 C 184.80512,50.476345 171.59332,39.466507 143.51824,39.466507 h -26.42361 c -24.221655,0 -48.993795,8.257373 -48.993795,44.589849 z"
         id="text1-9"
         aria-label="M" />
    </g>
  </g>
</svg>
